ISO-10303-21;
HEADER;
/* Generated by software containing ST-Developer
 * from STEP Tools, Inc. (www.steptools.com) 
 */
/* OPTION: using custom renumber hook */

FILE_DESCRIPTION(
/* description */ ('STEP AP242 Edition 2',
'CAx-IF Rec.Pracs.---Representation and Presentation of Product Manufa
cturing Information (PMI)---4.0---2014-10-13',
'CAx-IF Rec.Pracs.---3D Tessellated Geometry---0.4---2014-09-14','2;1',
'CAx-IF Rec.Pracs.---User Defined Attributes---1.5---2016-08-15'),
/* implementation_level */ '2;1');

FILE_NAME(
/* name */ '698d646d336c8f017a68a585',
/* time_stamp */ '2026-02-12T05:26:06Z',
/* author */ (''),
/* organization */ (''),
/* preprocessor_version */ 'ST-DEVELOPER v20',
/* originating_system */ 'ONSHAPE BY PTC INC, 1.210',
/* authorisation */ '  ');

FILE_SCHEMA (('AP242_MANAGED_MODEL_BASED_3D_ENGINEERING_MIM_LF { 1 0 10303 442 3 1 4 }'));
ENDSEC;

DATA;
#10=SHAPE_REPRESENTATION_RELATIONSHIP('','',#503,#12);
#11=SHAPE_REPRESENTATION_RELATIONSHIP('','',#504,#13);
#12=ADVANCED_BREP_SHAPE_REPRESENTATION('',(#499),#793);
#13=ADVANCED_BREP_SHAPE_REPRESENTATION('',(#500),#794);
#14=CYLINDRICAL_SURFACE('',#509,0.0015);
#15=CIRCLE('',#508,0.0015);
#16=CIRCLE('',#510,0.0015);
#17=ORIENTED_EDGE('',*,*,#141,.F.);
#18=ORIENTED_EDGE('',*,*,#142,.T.);
#19=ORIENTED_EDGE('',*,*,#143,.T.);
#20=ORIENTED_EDGE('',*,*,#144,.F.);
#21=ORIENTED_EDGE('',*,*,#145,.F.);
#22=ORIENTED_EDGE('',*,*,#146,.T.);
#23=ORIENTED_EDGE('',*,*,#147,.F.);
#24=ORIENTED_EDGE('',*,*,#148,.T.);
#25=ORIENTED_EDGE('',*,*,#149,.F.);
#26=ORIENTED_EDGE('',*,*,#150,.F.);
#27=ORIENTED_EDGE('',*,*,#149,.T.);
#28=ORIENTED_EDGE('',*,*,#151,.F.);
#29=ORIENTED_EDGE('',*,*,#152,.F.);
#30=ORIENTED_EDGE('',*,*,#147,.T.);
#31=ORIENTED_EDGE('',*,*,#153,.T.);
#32=ORIENTED_EDGE('',*,*,#150,.T.);
#33=ORIENTED_EDGE('',*,*,#154,.F.);
#34=ORIENTED_EDGE('',*,*,#151,.T.);
#35=ORIENTED_EDGE('',*,*,#155,.F.);
#36=ORIENTED_EDGE('',*,*,#156,.F.);
#37=ORIENTED_EDGE('',*,*,#157,.T.);
#38=ORIENTED_EDGE('',*,*,#158,.T.);
#39=ORIENTED_EDGE('',*,*,#159,.T.);
#40=ORIENTED_EDGE('',*,*,#160,.T.);
#41=ORIENTED_EDGE('',*,*,#161,.F.);
#42=ORIENTED_EDGE('',*,*,#162,.T.);
#43=ORIENTED_EDGE('',*,*,#163,.T.);
#44=ORIENTED_EDGE('',*,*,#164,.F.);
#45=ORIENTED_EDGE('',*,*,#155,.T.);
#46=ORIENTED_EDGE('',*,*,#153,.F.);
#47=ORIENTED_EDGE('',*,*,#146,.F.);
#48=ORIENTED_EDGE('',*,*,#165,.F.);
#49=ORIENTED_EDGE('',*,*,#160,.F.);
#50=ORIENTED_EDGE('',*,*,#166,.T.);
#51=ORIENTED_EDGE('',*,*,#143,.F.);
#52=ORIENTED_EDGE('',*,*,#167,.F.);
#53=ORIENTED_EDGE('',*,*,#164,.T.);
#54=ORIENTED_EDGE('',*,*,#168,.T.);
#55=ORIENTED_EDGE('',*,*,#169,.T.);
#56=ORIENTED_EDGE('',*,*,#144,.T.);
#57=ORIENTED_EDGE('',*,*,#168,.F.);
#58=ORIENTED_EDGE('',*,*,#163,.F.);
#59=ORIENTED_EDGE('',*,*,#170,.T.);
#60=ORIENTED_EDGE('',*,*,#141,.T.);
#61=ORIENTED_EDGE('',*,*,#169,.F.);
#62=ORIENTED_EDGE('',*,*,#162,.F.);
#63=ORIENTED_EDGE('',*,*,#142,.F.);
#64=ORIENTED_EDGE('',*,*,#170,.F.);
#65=ORIENTED_EDGE('',*,*,#161,.T.);
#66=ORIENTED_EDGE('',*,*,#167,.T.);
#67=ORIENTED_EDGE('',*,*,#156,.T.);
#68=ORIENTED_EDGE('',*,*,#166,.F.);
#69=ORIENTED_EDGE('',*,*,#159,.F.);
#70=ORIENTED_EDGE('',*,*,#171,.T.);
#71=ORIENTED_EDGE('',*,*,#154,.T.);
#72=ORIENTED_EDGE('',*,*,#171,.F.);
#73=ORIENTED_EDGE('',*,*,#158,.F.);
#74=ORIENTED_EDGE('',*,*,#172,.T.);
#75=ORIENTED_EDGE('',*,*,#148,.F.);
#76=ORIENTED_EDGE('',*,*,#152,.T.);
#77=ORIENTED_EDGE('',*,*,#165,.T.);
#78=ORIENTED_EDGE('',*,*,#145,.T.);
#79=ORIENTED_EDGE('',*,*,#172,.F.);
#80=ORIENTED_EDGE('',*,*,#157,.F.);
#81=ORIENTED_EDGE('',*,*,#173,.F.);
#82=ORIENTED_EDGE('',*,*,#174,.T.);
#83=ORIENTED_EDGE('',*,*,#175,.T.);
#84=ORIENTED_EDGE('',*,*,#176,.F.);
#85=ORIENTED_EDGE('',*,*,#177,.T.);
#86=ORIENTED_EDGE('',*,*,#178,.T.);
#87=ORIENTED_EDGE('',*,*,#179,.F.);
#88=ORIENTED_EDGE('',*,*,#180,.T.);
#89=ORIENTED_EDGE('',*,*,#181,.F.);
#90=ORIENTED_EDGE('',*,*,#182,.T.);
#91=ORIENTED_EDGE('',*,*,#183,.T.);
#92=ORIENTED_EDGE('',*,*,#184,.F.);
#93=ORIENTED_EDGE('',*,*,#175,.F.);
#94=ORIENTED_EDGE('',*,*,#185,.F.);
#95=ORIENTED_EDGE('',*,*,#184,.T.);
#96=ORIENTED_EDGE('',*,*,#186,.T.);
#97=ORIENTED_EDGE('',*,*,#176,.T.);
#98=ORIENTED_EDGE('',*,*,#186,.F.);
#99=ORIENTED_EDGE('',*,*,#183,.F.);
#100=ORIENTED_EDGE('',*,*,#187,.T.);
#101=ORIENTED_EDGE('',*,*,#173,.T.);
#102=ORIENTED_EDGE('',*,*,#187,.F.);
#103=ORIENTED_EDGE('',*,*,#182,.F.);
#104=ORIENTED_EDGE('',*,*,#188,.T.);
#105=ORIENTED_EDGE('',*,*,#174,.F.);
#106=ORIENTED_EDGE('',*,*,#188,.F.);
#107=ORIENTED_EDGE('',*,*,#181,.T.);
#108=ORIENTED_EDGE('',*,*,#185,.T.);
#109=ORIENTED_EDGE('',*,*,#189,.T.);
#110=ORIENTED_EDGE('',*,*,#190,.F.);
#111=ORIENTED_EDGE('',*,*,#178,.F.);
#112=ORIENTED_EDGE('',*,*,#191,.T.);
#113=ORIENTED_EDGE('',*,*,#192,.T.);
#114=ORIENTED_EDGE('',*,*,#193,.T.);
#115=ORIENTED_EDGE('',*,*,#194,.F.);
#116=ORIENTED_EDGE('',*,*,#195,.F.);
#117=ORIENTED_EDGE('',*,*,#189,.F.);
#118=ORIENTED_EDGE('',*,*,#196,.T.);
#119=ORIENTED_EDGE('',*,*,#197,.F.);
#120=ORIENTED_EDGE('',*,*,#198,.F.);
#121=ORIENTED_EDGE('',*,*,#193,.F.);
#122=ORIENTED_EDGE('',*,*,#199,.F.);
#123=ORIENTED_EDGE('',*,*,#197,.T.);
#124=ORIENTED_EDGE('',*,*,#200,.T.);
#125=ORIENTED_EDGE('',*,*,#194,.T.);
#126=ORIENTED_EDGE('',*,*,#200,.F.);
#127=ORIENTED_EDGE('',*,*,#196,.F.);
#128=ORIENTED_EDGE('',*,*,#191,.F.);
#129=ORIENTED_EDGE('',*,*,#177,.F.);
#130=ORIENTED_EDGE('',*,*,#201,.T.);
#131=ORIENTED_EDGE('',*,*,#195,.T.);
#132=ORIENTED_EDGE('',*,*,#201,.F.);
#133=ORIENTED_EDGE('',*,*,#180,.F.);
#134=ORIENTED_EDGE('',*,*,#202,.T.);
#135=ORIENTED_EDGE('',*,*,#192,.F.);
#136=ORIENTED_EDGE('',*,*,#202,.F.);
#137=ORIENTED_EDGE('',*,*,#179,.T.);
#138=ORIENTED_EDGE('',*,*,#190,.T.);
#139=ORIENTED_EDGE('',*,*,#198,.T.);
#140=ORIENTED_EDGE('',*,*,#199,.T.);
#141=EDGE_CURVE('',#203,#204,#245,.T.);
#142=EDGE_CURVE('',#203,#205,#246,.T.);
#143=EDGE_CURVE('',#205,#206,#247,.T.);
#144=EDGE_CURVE('',#204,#206,#248,.T.);
#145=EDGE_CURVE('',#207,#208,#249,.T.);
#146=EDGE_CURVE('',#207,#209,#250,.T.);
#147=EDGE_CURVE('',#210,#209,#251,.T.);
#148=EDGE_CURVE('',#210,#208,#252,.T.);
#149=EDGE_CURVE('',#211,#211,#15,.T.);
#150=EDGE_CURVE('',#212,#212,#16,.T.);
#151=EDGE_CURVE('',#213,#214,#253,.T.);
#152=EDGE_CURVE('',#210,#213,#254,.T.);
#153=EDGE_CURVE('',#209,#214,#255,.T.);
#154=EDGE_CURVE('',#213,#215,#256,.T.);
#155=EDGE_CURVE('',#216,#214,#257,.T.);
#156=EDGE_CURVE('',#215,#216,#258,.T.);
#157=EDGE_CURVE('',#217,#218,#259,.T.);
#158=EDGE_CURVE('',#218,#219,#260,.T.);
#159=EDGE_CURVE('',#219,#220,#261,.T.);
#160=EDGE_CURVE('',#220,#217,#262,.T.);
#161=EDGE_CURVE('',#221,#222,#263,.T.);
#162=EDGE_CURVE('',#221,#223,#264,.T.);
#163=EDGE_CURVE('',#223,#224,#265,.T.);
#164=EDGE_CURVE('',#222,#224,#266,.T.);
#165=EDGE_CURVE('',#217,#207,#267,.T.);
#166=EDGE_CURVE('',#220,#216,#268,.T.);
#167=EDGE_CURVE('',#222,#205,#269,.T.);
#168=EDGE_CURVE('',#224,#206,#270,.T.);
#169=EDGE_CURVE('',#223,#204,#271,.T.);
#170=EDGE_CURVE('',#221,#203,#272,.T.);
#171=EDGE_CURVE('',#219,#215,#273,.T.);
#172=EDGE_CURVE('',#218,#208,#274,.T.);
#173=EDGE_CURVE('',#225,#226,#275,.T.);
#174=EDGE_CURVE('',#225,#227,#276,.T.);
#175=EDGE_CURVE('',#227,#228,#277,.T.);
#176=EDGE_CURVE('',#226,#228,#278,.T.);
#177=EDGE_CURVE('',#229,#230,#279,.T.);
#178=EDGE_CURVE('',#230,#231,#280,.T.);
#179=EDGE_CURVE('',#232,#231,#281,.T.);
#180=EDGE_CURVE('',#232,#229,#282,.T.);
#181=EDGE_CURVE('',#233,#234,#283,.T.);
#182=EDGE_CURVE('',#233,#235,#284,.T.);
#183=EDGE_CURVE('',#235,#236,#285,.T.);
#184=EDGE_CURVE('',#234,#236,#286,.T.);
#185=EDGE_CURVE('',#234,#227,#287,.T.);
#186=EDGE_CURVE('',#236,#228,#288,.T.);
#187=EDGE_CURVE('',#235,#226,#289,.T.);
#188=EDGE_CURVE('',#233,#225,#290,.T.);
#189=EDGE_CURVE('',#237,#238,#291,.T.);
#190=EDGE_CURVE('',#231,#238,#292,.T.);
#191=EDGE_CURVE('',#230,#237,#293,.T.);
#192=EDGE_CURVE('',#239,#240,#294,.T.);
#193=EDGE_CURVE('',#240,#241,#295,.T.);
#194=EDGE_CURVE('',#242,#241,#296,.T.);
#195=EDGE_CURVE('',#239,#242,#297,.T.);
#196=EDGE_CURVE('',#237,#243,#298,.T.);
#197=EDGE_CURVE('',#244,#243,#299,.T.);
#198=EDGE_CURVE('',#238,#244,#300,.T.);
#199=EDGE_CURVE('',#244,#240,#301,.T.);
#200=EDGE_CURVE('',#243,#241,#302,.T.);
#201=EDGE_CURVE('',#229,#242,#303,.T.);
#202=EDGE_CURVE('',#232,#239,#304,.T.);
#203=VERTEX_POINT('',#661);
#204=VERTEX_POINT('',#662);
#205=VERTEX_POINT('',#664);
#206=VERTEX_POINT('',#666);
#207=VERTEX_POINT('',#670);
#208=VERTEX_POINT('',#671);
#209=VERTEX_POINT('',#673);
#210=VERTEX_POINT('',#675);
#211=VERTEX_POINT('',#678);
#212=VERTEX_POINT('',#681);
#213=VERTEX_POINT('',#684);
#214=VERTEX_POINT('',#685);
#215=VERTEX_POINT('',#690);
#216=VERTEX_POINT('',#692);
#217=VERTEX_POINT('',#696);
#218=VERTEX_POINT('',#697);
#219=VERTEX_POINT('',#699);
#220=VERTEX_POINT('',#701);
#221=VERTEX_POINT('',#704);
#222=VERTEX_POINT('',#705);
#223=VERTEX_POINT('',#707);
#224=VERTEX_POINT('',#709);
#225=VERTEX_POINT('',#730);
#226=VERTEX_POINT('',#731);
#227=VERTEX_POINT('',#733);
#228=VERTEX_POINT('',#735);
#229=VERTEX_POINT('',#739);
#230=VERTEX_POINT('',#740);
#231=VERTEX_POINT('',#742);
#232=VERTEX_POINT('',#744);
#233=VERTEX_POINT('',#747);
#234=VERTEX_POINT('',#748);
#235=VERTEX_POINT('',#750);
#236=VERTEX_POINT('',#752);
#237=VERTEX_POINT('',#764);
#238=VERTEX_POINT('',#765);
#239=VERTEX_POINT('',#770);
#240=VERTEX_POINT('',#771);
#241=VERTEX_POINT('',#773);
#242=VERTEX_POINT('',#775);
#243=VERTEX_POINT('',#779);
#244=VERTEX_POINT('',#781);
#245=LINE('',#660,#305);
#246=LINE('',#663,#306);
#247=LINE('',#665,#307);
#248=LINE('',#667,#308);
#249=LINE('',#669,#309);
#250=LINE('',#672,#310);
#251=LINE('',#674,#311);
#252=LINE('',#676,#312);
#253=LINE('',#683,#313);
#254=LINE('',#686,#314);
#255=LINE('',#687,#315);
#256=LINE('',#689,#316);
#257=LINE('',#691,#317);
#258=LINE('',#693,#318);
#259=LINE('',#695,#319);
#260=LINE('',#698,#320);
#261=LINE('',#700,#321);
#262=LINE('',#702,#322);
#263=LINE('',#703,#323);
#264=LINE('',#706,#324);
#265=LINE('',#708,#325);
#266=LINE('',#710,#326);
#267=LINE('',#712,#327);
#268=LINE('',#713,#328);
#269=LINE('',#715,#329);
#270=LINE('',#716,#330);
#271=LINE('',#718,#331);
#272=LINE('',#720,#332);
#273=LINE('',#723,#333);
#274=LINE('',#725,#334);
#275=LINE('',#729,#335);
#276=LINE('',#732,#336);
#277=LINE('',#734,#337);
#278=LINE('',#736,#338);
#279=LINE('',#738,#339);
#280=LINE('',#741,#340);
#281=LINE('',#743,#341);
#282=LINE('',#745,#342);
#283=LINE('',#746,#343);
#284=LINE('',#749,#344);
#285=LINE('',#751,#345);
#286=LINE('',#753,#346);
#287=LINE('',#755,#347);
#288=LINE('',#756,#348);
#289=LINE('',#758,#349);
#290=LINE('',#760,#350);
#291=LINE('',#763,#351);
#292=LINE('',#766,#352);
#293=LINE('',#767,#353);
#294=LINE('',#769,#354);
#295=LINE('',#772,#355);
#296=LINE('',#774,#356);
#297=LINE('',#776,#357);
#298=LINE('',#778,#358);
#299=LINE('',#780,#359);
#300=LINE('',#782,#360);
#301=LINE('',#784,#361);
#302=LINE('',#785,#362);
#303=LINE('',#787,#363);
#304=LINE('',#789,#364);
#305=VECTOR('',#540,1.);
#306=VECTOR('',#541,1.);
#307=VECTOR('',#542,1.);
#308=VECTOR('',#543,1.);
#309=VECTOR('',#546,1.);
#310=VECTOR('',#547,1.);
#311=VECTOR('',#548,1.);
#312=VECTOR('',#549,1.);
#313=VECTOR('',#558,1.);
#314=VECTOR('',#559,1.);
#315=VECTOR('',#560,1.);
#316=VECTOR('',#563,1.);
#317=VECTOR('',#564,1.);
#318=VECTOR('',#565,1.);
#319=VECTOR('',#568,1.);
#320=VECTOR('',#569,1.);
#321=VECTOR('',#570,1.);
#322=VECTOR('',#571,1.);
#323=VECTOR('',#572,1.);
#324=VECTOR('',#573,1.);
#325=VECTOR('',#574,1.);
#326=VECTOR('',#575,1.);
#327=VECTOR('',#578,1.);
#328=VECTOR('',#579,1.);
#329=VECTOR('',#582,1.);
#330=VECTOR('',#583,1.);
#331=VECTOR('',#586,1.);
#332=VECTOR('',#589,1.);
#333=VECTOR('',#594,1.);
#334=VECTOR('',#597,1.);
#335=VECTOR('',#604,1.);
#336=VECTOR('',#605,1.);
#337=VECTOR('',#606,1.);
#338=VECTOR('',#607,1.);
#339=VECTOR('',#610,1.);
#340=VECTOR('',#611,1.);
#341=VECTOR('',#612,1.);
#342=VECTOR('',#613,1.);
#343=VECTOR('',#614,1.);
#344=VECTOR('',#615,1.);
#345=VECTOR('',#616,1.);
#346=VECTOR('',#617,1.);
#347=VECTOR('',#620,1.);
#348=VECTOR('',#621,1.);
#349=VECTOR('',#624,1.);
#350=VECTOR('',#627,1.);
#351=VECTOR('',#632,1.);
#352=VECTOR('',#633,1.);
#353=VECTOR('',#634,1.);
#354=VECTOR('',#637,1.);
#355=VECTOR('',#638,1.);
#356=VECTOR('',#639,1.);
#357=VECTOR('',#640,1.);
#358=VECTOR('',#643,1.);
#359=VECTOR('',#644,1.);
#360=VECTOR('',#645,1.);
#361=VECTOR('',#648,1.);
#362=VECTOR('',#649,1.);
#363=VECTOR('',#652,1.);
#364=VECTOR('',#655,1.);
#365=EDGE_LOOP('',(#17,#18,#19,#20));
#366=EDGE_LOOP('',(#21,#22,#23,#24));
#367=EDGE_LOOP('',(#25));
#368=EDGE_LOOP('',(#26));
#369=EDGE_LOOP('',(#27));
#370=EDGE_LOOP('',(#28,#29,#30,#31));
#371=EDGE_LOOP('',(#32));
#372=EDGE_LOOP('',(#33,#34,#35,#36));
#373=EDGE_LOOP('',(#37,#38,#39,#40));
#374=EDGE_LOOP('',(#41,#42,#43,#44));
#375=EDGE_LOOP('',(#45,#46,#47,#48,#49,#50));
#376=EDGE_LOOP('',(#51,#52,#53,#54));
#377=EDGE_LOOP('',(#55,#56,#57,#58));
#378=EDGE_LOOP('',(#59,#60,#61,#62));
#379=EDGE_LOOP('',(#63,#64,#65,#66));
#380=EDGE_LOOP('',(#67,#68,#69,#70));
#381=EDGE_LOOP('',(#71,#72,#73,#74,#75,#76));
#382=EDGE_LOOP('',(#77,#78,#79,#80));
#383=EDGE_LOOP('',(#81,#82,#83,#84));
#384=EDGE_LOOP('',(#85,#86,#87,#88));
#385=EDGE_LOOP('',(#89,#90,#91,#92));
#386=EDGE_LOOP('',(#93,#94,#95,#96));
#387=EDGE_LOOP('',(#97,#98,#99,#100));
#388=EDGE_LOOP('',(#101,#102,#103,#104));
#389=EDGE_LOOP('',(#105,#106,#107,#108));
#390=EDGE_LOOP('',(#109,#110,#111,#112));
#391=EDGE_LOOP('',(#113,#114,#115,#116));
#392=EDGE_LOOP('',(#117,#118,#119,#120));
#393=EDGE_LOOP('',(#121,#122,#123,#124));
#394=EDGE_LOOP('',(#125,#126,#127,#128,#129,#130));
#395=EDGE_LOOP('',(#131,#132,#133,#134));
#396=EDGE_LOOP('',(#135,#136,#137,#138,#139,#140));
#397=FACE_BOUND('',#365,.T.);
#398=FACE_BOUND('',#366,.T.);
#399=FACE_BOUND('',#367,.T.);
#400=FACE_BOUND('',#368,.T.);
#401=FACE_BOUND('',#369,.T.);
#402=FACE_BOUND('',#370,.T.);
#403=FACE_BOUND('',#371,.T.);
#404=FACE_BOUND('',#372,.T.);
#405=FACE_BOUND('',#373,.T.);
#406=FACE_BOUND('',#374,.T.);
#407=FACE_BOUND('',#375,.T.);
#408=FACE_BOUND('',#376,.T.);
#409=FACE_BOUND('',#377,.T.);
#410=FACE_BOUND('',#378,.T.);
#411=FACE_BOUND('',#379,.T.);
#412=FACE_BOUND('',#380,.T.);
#413=FACE_BOUND('',#381,.T.);
#414=FACE_BOUND('',#382,.T.);
#415=FACE_BOUND('',#383,.T.);
#416=FACE_BOUND('',#384,.T.);
#417=FACE_BOUND('',#385,.T.);
#418=FACE_BOUND('',#386,.T.);
#419=FACE_BOUND('',#387,.T.);
#420=FACE_BOUND('',#388,.T.);
#421=FACE_BOUND('',#389,.T.);
#422=FACE_BOUND('',#390,.T.);
#423=FACE_BOUND('',#391,.T.);
#424=FACE_BOUND('',#392,.T.);
#425=FACE_BOUND('',#393,.T.);
#426=FACE_BOUND('',#394,.T.);
#427=FACE_BOUND('',#395,.T.);
#428=FACE_BOUND('',#396,.T.);
#429=PLANE('',#506);
#430=PLANE('',#507);
#431=PLANE('',#511);
#432=PLANE('',#512);
#433=PLANE('',#513);
#434=PLANE('',#514);
#435=PLANE('',#515);
#436=PLANE('',#516);
#437=PLANE('',#517);
#438=PLANE('',#518);
#439=PLANE('',#519);
#440=PLANE('',#520);
#441=PLANE('',#521);
#442=PLANE('',#523);
#443=PLANE('',#524);
#444=PLANE('',#525);
#445=PLANE('',#526);
#446=PLANE('',#527);
#447=PLANE('',#528);
#448=PLANE('',#529);
#449=PLANE('',#530);
#450=PLANE('',#531);
#451=PLANE('',#532);
#452=PLANE('',#533);
#453=PLANE('',#534);
#454=PLANE('',#535);
#455=ADVANCED_FACE('',(#397),#429,.T.);
#456=ADVANCED_FACE('',(#398,#399),#430,.T.);
#457=ADVANCED_FACE('',(#400,#401),#14,.F.);
#458=ADVANCED_FACE('',(#402),#431,.T.);
#459=ADVANCED_FACE('',(#403,#404),#432,.F.);
#460=ADVANCED_FACE('',(#405,#406),#433,.T.);
#461=ADVANCED_FACE('',(#407),#434,.F.);
#462=ADVANCED_FACE('',(#408),#435,.T.);
#463=ADVANCED_FACE('',(#409),#436,.F.);
#464=ADVANCED_FACE('',(#410),#437,.F.);
#465=ADVANCED_FACE('',(#411),#438,.T.);
#466=ADVANCED_FACE('',(#412),#439,.F.);
#467=ADVANCED_FACE('',(#413),#440,.F.);
#468=ADVANCED_FACE('',(#414),#441,.F.);
#469=ADVANCED_FACE('',(#415),#442,.T.);
#470=ADVANCED_FACE('',(#416,#417),#443,.T.);
#471=ADVANCED_FACE('',(#418),#444,.T.);
#472=ADVANCED_FACE('',(#419),#445,.F.);
#473=ADVANCED_FACE('',(#420),#446,.F.);
#474=ADVANCED_FACE('',(#421),#447,.T.);
#475=ADVANCED_FACE('',(#422),#448,.F.);
#476=ADVANCED_FACE('',(#423),#449,.F.);
#477=ADVANCED_FACE('',(#424),#450,.T.);
#478=ADVANCED_FACE('',(#425),#451,.T.);
#479=ADVANCED_FACE('',(#426),#452,.F.);
#480=ADVANCED_FACE('',(#427),#453,.F.);
#481=ADVANCED_FACE('',(#428),#454,.T.);
#482=CLOSED_SHELL('',(#455,#456,#457,#458,#459,#460,#461,#462,#463,#464,
#465,#466,#467,#468));
#483=CLOSED_SHELL('',(#469,#470,#471,#472,#473,#474,#475,#476,#477,#478,
#479,#480,#481));
#484=STYLED_ITEM('',(#486),#499);
#485=STYLED_ITEM('',(#487),#500);
#486=PRESENTATION_STYLE_ASSIGNMENT((#488));
#487=PRESENTATION_STYLE_ASSIGNMENT((#489));
#488=SURFACE_STYLE_USAGE(.BOTH.,#490);
#489=SURFACE_STYLE_USAGE(.BOTH.,#491);
#490=SURFACE_SIDE_STYLE('',(#492));
#491=SURFACE_SIDE_STYLE('',(#493));
#492=SURFACE_STYLE_FILL_AREA(#494);
#493=SURFACE_STYLE_FILL_AREA(#495);
#494=FILL_AREA_STYLE('',(#496));
#495=FILL_AREA_STYLE('',(#497));
#496=FILL_AREA_STYLE_COLOUR('',#498);
#497=FILL_AREA_STYLE_COLOUR('',#498);
#498=COLOUR_RGB('',0.615686274509804,0.811764705882353,0.929411764705882);
#499=MANIFOLD_SOLID_BREP('Part 1',#482);
#500=MANIFOLD_SOLID_BREP('Part 1',#483);
#501=SHAPE_DEFINITION_REPRESENTATION(#803,#503);
#502=SHAPE_DEFINITION_REPRESENTATION(#804,#504);
#503=SHAPE_REPRESENTATION('Part 1',(#505),#793);
#504=SHAPE_REPRESENTATION('Part 1',(#522),#794);
#505=AXIS2_PLACEMENT_3D('',#658,#536,#537);
#506=AXIS2_PLACEMENT_3D('',#659,#538,#539);
#507=AXIS2_PLACEMENT_3D('',#668,#544,#545);
#508=AXIS2_PLACEMENT_3D('',#677,#550,#551);
#509=AXIS2_PLACEMENT_3D('',#679,#552,#553);
#510=AXIS2_PLACEMENT_3D('',#680,#554,#555);
#511=AXIS2_PLACEMENT_3D('',#682,#556,#557);
#512=AXIS2_PLACEMENT_3D('',#688,#561,#562);
#513=AXIS2_PLACEMENT_3D('',#694,#566,#567);
#514=AXIS2_PLACEMENT_3D('',#711,#576,#577);
#515=AXIS2_PLACEMENT_3D('',#714,#580,#581);
#516=AXIS2_PLACEMENT_3D('',#717,#584,#585);
#517=AXIS2_PLACEMENT_3D('',#719,#587,#588);
#518=AXIS2_PLACEMENT_3D('',#721,#590,#591);
#519=AXIS2_PLACEMENT_3D('',#722,#592,#593);
#520=AXIS2_PLACEMENT_3D('',#724,#595,#596);
#521=AXIS2_PLACEMENT_3D('',#726,#598,#599);
#522=AXIS2_PLACEMENT_3D('',#727,#600,#601);
#523=AXIS2_PLACEMENT_3D('',#728,#602,#603);
#524=AXIS2_PLACEMENT_3D('',#737,#608,#609);
#525=AXIS2_PLACEMENT_3D('',#754,#618,#619);
#526=AXIS2_PLACEMENT_3D('',#757,#622,#623);
#527=AXIS2_PLACEMENT_3D('',#759,#625,#626);
#528=AXIS2_PLACEMENT_3D('',#761,#628,#629);
#529=AXIS2_PLACEMENT_3D('',#762,#630,#631);
#530=AXIS2_PLACEMENT_3D('',#768,#635,#636);
#531=AXIS2_PLACEMENT_3D('',#777,#641,#642);
#532=AXIS2_PLACEMENT_3D('',#783,#646,#647);
#533=AXIS2_PLACEMENT_3D('',#786,#650,#651);
#534=AXIS2_PLACEMENT_3D('',#788,#653,#654);
#535=AXIS2_PLACEMENT_3D('',#790,#656,#657);
#536=DIRECTION('',(0.,0.,1.));
#537=DIRECTION('',(1.,0.,0.));
#538=DIRECTION('',(0.,0.,1.));
#539=DIRECTION('',(1.,0.,0.));
#540=DIRECTION('',(-4.16333634234434E-16,-1.,0.));
#541=DIRECTION('',(-1.,1.92747052886312E-16,0.));
#542=DIRECTION('',(-4.16333634234434E-16,-1.,0.));
#543=DIRECTION('',(-1.,1.92747052886312E-16,0.));
#544=DIRECTION('',(0.,0.,1.));
#545=DIRECTION('',(1.,0.,0.));
#546=DIRECTION('',(1.,-1.7347234759768E-16,0.));
#547=DIRECTION('',(0.,-1.,0.));
#548=DIRECTION('',(-1.,3.46944695195361E-16,0.));
#549=DIRECTION('',(0.,1.,0.));
#550=DIRECTION('',(0.,0.,1.));
#551=DIRECTION('',(1.,0.,0.));
#552=DIRECTION('',(0.,0.,-1.));
#553=DIRECTION('',(-1.,0.,0.));
#554=DIRECTION('',(0.,0.,1.));
#555=DIRECTION('',(1.,0.,0.));
#556=DIRECTION('',(0.,-1.,0.));
#557=DIRECTION('',(1.,0.,0.));
#558=DIRECTION('',(-1.,3.46944695195361E-16,0.));
#559=DIRECTION('',(0.,0.,-1.));
#560=DIRECTION('',(0.,0.,-1.));
#561=DIRECTION('',(0.,0.,1.));
#562=DIRECTION('',(1.,0.,0.));
#563=DIRECTION('',(0.,1.,0.));
#564=DIRECTION('',(-1.28498035257541E-16,-1.,0.));
#565=DIRECTION('',(-1.,7.80625564189563E-16,0.));
#566=DIRECTION('',(0.,0.,1.));
#567=DIRECTION('',(1.,0.,0.));
#568=DIRECTION('',(1.,-1.7347234759768E-16,0.));
#569=DIRECTION('',(0.,1.,0.));
#570=DIRECTION('',(-1.,7.80625564189563E-16,0.));
#571=DIRECTION('',(-1.28498035257541E-16,-1.,0.));
#572=DIRECTION('',(-1.,1.92747052886312E-16,0.));
#573=DIRECTION('',(-4.16333634234434E-16,-1.,0.));
#574=DIRECTION('',(-1.,1.92747052886312E-16,0.));
#575=DIRECTION('',(-4.16333634234434E-16,-1.,0.));
#576=DIRECTION('',(1.,0.,0.));
#577=DIRECTION('',(0.,1.,0.));
#578=DIRECTION('',(0.,0.,-1.));
#579=DIRECTION('',(0.,0.,-1.));
#580=DIRECTION('',(1.,0.,0.));
#581=DIRECTION('',(0.,1.,0.));
#582=DIRECTION('',(0.,0.,-1.));
#583=DIRECTION('',(0.,0.,-1.));
#584=DIRECTION('',(0.,-1.,0.));
#585=DIRECTION('',(1.,0.,0.));
#586=DIRECTION('',(0.,0.,-1.));
#587=DIRECTION('',(1.,0.,0.));
#588=DIRECTION('',(0.,1.,0.));
#589=DIRECTION('',(0.,0.,-1.));
#590=DIRECTION('',(0.,-1.,0.));
#591=DIRECTION('',(1.,0.,0.));
#592=DIRECTION('',(0.,-1.,0.));
#593=DIRECTION('',(1.,0.,0.));
#594=DIRECTION('',(0.,0.,-1.));
#595=DIRECTION('',(-1.,0.,0.));
#596=DIRECTION('',(0.,0.,1.));
#597=DIRECTION('',(0.,0.,-1.));
#598=DIRECTION('',(0.,1.,0.));
#599=DIRECTION('',(-1.,0.,0.));
#600=DIRECTION('',(0.,0.,1.));
#601=DIRECTION('',(1.,0.,0.));
#602=DIRECTION('',(-1.28382490092853E-30,9.71445146546971E-17,-1.));
#603=DIRECTION('',(-1.,-2.4980018054066E-16,1.25955818362925E-30));
#604=DIRECTION('',(1.,2.4980018054066E-16,-1.25955818362925E-30));
#605=DIRECTION('',(-2.4980018054066E-16,1.,9.71445146546971E-17));
#606=DIRECTION('',(1.,2.4980018054066E-16,-1.25955818362925E-30));
#607=DIRECTION('',(-2.4980018054066E-16,1.,9.71445146546971E-17));
#608=DIRECTION('',(-1.28382490092853E-30,9.71445146546971E-17,-1.));
#609=DIRECTION('',(-1.,-2.4980018054066E-16,1.25955818362925E-30));
#610=DIRECTION('',(3.13406707993143E-16,-1.,-9.71445146546971E-17));
#611=DIRECTION('',(-1.,-2.4980018054066E-16,1.25955818362925E-30));
#612=DIRECTION('',(3.13406707993143E-16,-1.,-9.71445146546971E-17));
#613=DIRECTION('',(1.,2.4980018054066E-16,-1.25955818362925E-30));
#614=DIRECTION('',(-2.4980018054066E-16,1.,9.71445146546971E-17));
#615=DIRECTION('',(1.,2.4980018054066E-16,-1.25955818362925E-30));
#616=DIRECTION('',(-2.4980018054066E-16,1.,9.71445146546971E-17));
#617=DIRECTION('',(1.,2.4980018054066E-16,-1.25955818362925E-30));
#618=DIRECTION('',(2.4980018054066E-16,-1.,-9.71445146546971E-17));
#619=DIRECTION('',(1.28382490092853E-30,-9.71445146546971E-17,1.));
#620=DIRECTION('',(1.28382490092853E-30,-9.71445146546971E-17,1.));
#621=DIRECTION('',(1.28382490092853E-30,-9.71445146546971E-17,1.));
#622=DIRECTION('',(1.,2.4980018054066E-16,-1.25955818362925E-30));
#623=DIRECTION('',(-1.28382490092853E-30,9.71445146546971E-17,-1.));
#624=DIRECTION('',(1.28382490092853E-30,-9.71445146546971E-17,1.));
#625=DIRECTION('',(2.4980018054066E-16,-1.,-9.71445146546971E-17));
#626=DIRECTION('',(1.28382490092853E-30,-9.71445146546971E-17,1.));
#627=DIRECTION('',(1.28382490092853E-30,-9.71445146546971E-17,1.));
#628=DIRECTION('',(1.,2.4980018054066E-16,-1.25955818362925E-30));
#629=DIRECTION('',(-1.28382490092853E-30,9.71445146546971E-17,-1.));
#630=DIRECTION('',(-2.4980018054066E-16,1.,9.71445146546971E-17));
#631=DIRECTION('',(-1.28382490092853E-30,9.71445146546971E-17,-1.));
#632=DIRECTION('',(-1.,-2.4980018054066E-16,1.25955818362925E-30));
#633=DIRECTION('',(1.28382490092853E-30,-9.71445146546971E-17,1.));
#634=DIRECTION('',(1.28382490092853E-30,-9.71445146546971E-17,1.));
#635=DIRECTION('',(-1.28382490092853E-30,9.71445146546971E-17,-1.));
#636=DIRECTION('',(-1.,-2.4980018054066E-16,1.25955818362925E-30));
#637=DIRECTION('',(3.13406707993143E-16,-1.,-9.71445146546971E-17));
#638=DIRECTION('',(1.,2.4980018054066E-16,-1.25955818362925E-30));
#639=DIRECTION('',(3.13406707993143E-16,-1.,-9.71445146546971E-17));
#640=DIRECTION('',(1.,2.4980018054066E-16,-1.25955818362925E-30));
#641=DIRECTION('',(-1.28382490092853E-30,9.71445146546971E-17,-1.));
#642=DIRECTION('',(-1.,-2.4980018054066E-16,1.25955818362925E-30));
#643=DIRECTION('',(3.13406707993143E-16,-1.,-9.71445146546971E-17));
#644=DIRECTION('',(1.,2.4980018054066E-16,-1.25955818362925E-30));
#645=DIRECTION('',(3.13406707993143E-16,-1.,-9.71445146546971E-17));
#646=DIRECTION('',(2.4980018054066E-16,-1.,-9.71445146546971E-17));
#647=DIRECTION('',(1.28382490092853E-30,-9.71445146546971E-17,1.));
#648=DIRECTION('',(1.28382490092853E-30,-9.71445146546971E-17,1.));
#649=DIRECTION('',(1.28382490092853E-30,-9.71445146546971E-17,1.));
#650=DIRECTION('',(-1.,-3.13406707993143E-16,1.25337915839101E-30));
#651=DIRECTION('',(-3.13406707993143E-16,1.,9.71445146546971E-17));
#652=DIRECTION('',(1.28382490092853E-30,-9.71445146546971E-17,1.));
#653=DIRECTION('',(2.4980018054066E-16,-1.,-9.71445146546971E-17));
#654=DIRECTION('',(1.28382490092853E-30,-9.71445146546971E-17,1.));
#655=DIRECTION('',(1.28382490092853E-30,-9.71445146546971E-17,1.));
#656=DIRECTION('',(-1.,-3.13406707993143E-16,1.25337915839101E-30));
#657=DIRECTION('',(-3.13406707993143E-16,1.,9.71445146546971E-17));
#658=CARTESIAN_POINT('',(0.,0.,0.));
#659=CARTESIAN_POINT('',(-0.00911680422723293,0.0123917888849974,0.0484830682426691));
#660=CARTESIAN_POINT('',(-0.00011680422723293,0.0163917888849974,0.0484830682426691));
#661=CARTESIAN_POINT('',(-0.00011680422723293,0.0288917888849974,0.0484830682426691));
#662=CARTESIAN_POINT('',(-0.00011680422723293,0.0038917888849974,0.0484830682426691));
#663=CARTESIAN_POINT('',(-0.00911680422723292,0.0288917888849974,0.0484830682426691));
#664=CARTESIAN_POINT('',(-0.018116804227233,0.0288917888849974,0.0484830682426691));
#665=CARTESIAN_POINT('',(-0.018116804227233,0.0163917888849974,0.0484830682426691));
#666=CARTESIAN_POINT('',(-0.018116804227233,0.0038917888849974,0.0484830682426691));
#667=CARTESIAN_POINT('',(-0.00911680422723293,0.0038917888849974,0.0484830682426691));
#668=CARTESIAN_POINT('',(-0.00911680422723293,0.0123917888849974,-0.0090169317573309));
#669=CARTESIAN_POINT('',(-0.00911680422723293,0.0028917888849974,-0.0090169317573309));
#670=CARTESIAN_POINT('',(-0.0191168042272329,0.0028917888849974,-0.0090169317573309));
#671=CARTESIAN_POINT('',(0.000883195772767071,0.0028917888849974,-0.0090169317573309));
#672=CARTESIAN_POINT('',(-0.0191168042272329,-0.0011082111150026,-0.0090169317573309));
#673=CARTESIAN_POINT('',(-0.0191168042272329,-0.0051082111150026,-0.0090169317573309));
#674=CARTESIAN_POINT('',(-0.00911680422723293,-0.0051082111150026,-0.0090169317573309));
#675=CARTESIAN_POINT('',(0.000883195772767071,-0.0051082111150026,-0.0090169317573309));
#676=CARTESIAN_POINT('',(0.000883195772767071,-0.0011082111150026,-0.0090169317573309));
#677=CARTESIAN_POINT('',(-0.00911680422723293,-0.0016082111150026,-0.0090169317573309));
#678=CARTESIAN_POINT('',(-0.00761680422723293,-0.0016082111150026,-0.0090169317573309));
#679=CARTESIAN_POINT('',(-0.00911680422723293,-0.0016082111150026,-0.0090169317573309));
#680=CARTESIAN_POINT('',(-0.00911680422723293,-0.0016082111150026,-0.0135169317573309));
#681=CARTESIAN_POINT('',(-0.00761680422723293,-0.0016082111150026,-0.0135169317573309));
#682=CARTESIAN_POINT('',(-0.00911680422723293,-0.0051082111150026,-0.0090169317573309));
#683=CARTESIAN_POINT('',(-0.00911680422723293,-0.0051082111150026,-0.0135169317573309));
#684=CARTESIAN_POINT('',(0.000883195772767071,-0.0051082111150026,-0.0135169317573309));
#685=CARTESIAN_POINT('',(-0.0191168042272329,-0.0051082111150026,-0.0135169317573309));
#686=CARTESIAN_POINT('',(0.000883195772767071,-0.0051082111150026,-0.0090169317573309));
#687=CARTESIAN_POINT('',(-0.0191168042272329,-0.0051082111150026,-0.0090169317573309));
#688=CARTESIAN_POINT('',(-0.00911680422723293,0.0123917888849974,-0.0135169317573309));
#689=CARTESIAN_POINT('',(0.000883195772767071,0.0163917888849974,-0.0135169317573309));
#690=CARTESIAN_POINT('',(0.000883195772767071,0.0298917888849974,-0.0135169317573309));
#691=CARTESIAN_POINT('',(-0.0191168042272329,0.0163917888849974,-0.0135169317573309));
#692=CARTESIAN_POINT('',(-0.0191168042272329,0.0298917888849974,-0.0135169317573309));
#693=CARTESIAN_POINT('',(-0.00911680422723293,0.0298917888849974,-0.0135169317573309));
#694=CARTESIAN_POINT('',(-0.00911680422723293,0.0123917888849974,0.0664830682426691));
#695=CARTESIAN_POINT('',(-0.00911680422723293,0.0028917888849974,0.0664830682426691));
#696=CARTESIAN_POINT('',(-0.0191168042272329,0.0028917888849974,0.0664830682426691));
#697=CARTESIAN_POINT('',(0.000883195772767071,0.0028917888849974,0.0664830682426691));
#698=CARTESIAN_POINT('',(0.000883195772767071,0.0163917888849974,0.0664830682426691));
#699=CARTESIAN_POINT('',(0.000883195772767071,0.0298917888849974,0.0664830682426691));
#700=CARTESIAN_POINT('',(-0.00911680422723293,0.0298917888849974,0.0664830682426691));
#701=CARTESIAN_POINT('',(-0.0191168042272329,0.0298917888849974,0.0664830682426691));
#702=CARTESIAN_POINT('',(-0.0191168042272329,0.0163917888849974,0.0664830682426691));
#703=CARTESIAN_POINT('',(-0.00911680422723292,0.0288917888849974,0.0664830682426691));
#704=CARTESIAN_POINT('',(-0.00011680422723293,0.0288917888849974,0.0664830682426691));
#705=CARTESIAN_POINT('',(-0.018116804227233,0.0288917888849974,0.0664830682426691));
#706=CARTESIAN_POINT('',(-0.00011680422723293,0.0163917888849974,0.0664830682426691));
#707=CARTESIAN_POINT('',(-0.00011680422723293,0.0038917888849974,0.0664830682426691));
#708=CARTESIAN_POINT('',(-0.00911680422723293,0.0038917888849974,0.0664830682426691));
#709=CARTESIAN_POINT('',(-0.018116804227233,0.0038917888849974,0.0664830682426691));
#710=CARTESIAN_POINT('',(-0.018116804227233,0.0163917888849974,0.0664830682426691));
#711=CARTESIAN_POINT('',(-0.0191168042272329,0.0163917888849974,0.0664830682426691));
#712=CARTESIAN_POINT('',(-0.0191168042272329,0.0028917888849974,0.0664830682426691));
#713=CARTESIAN_POINT('',(-0.0191168042272329,0.0298917888849974,0.0664830682426691));
#714=CARTESIAN_POINT('',(-0.018116804227233,0.0163917888849974,0.0664830682426691));
#715=CARTESIAN_POINT('',(-0.018116804227233,0.0288917888849974,0.0664830682426691));
#716=CARTESIAN_POINT('',(-0.018116804227233,0.0038917888849974,0.0664830682426691));
#717=CARTESIAN_POINT('',(-0.00911680422723293,0.0038917888849974,0.0664830682426691));
#718=CARTESIAN_POINT('',(-0.00011680422723293,0.0038917888849974,0.0664830682426691));
#719=CARTESIAN_POINT('',(-0.00011680422723293,0.0163917888849974,0.0664830682426691));
#720=CARTESIAN_POINT('',(-0.00011680422723293,0.0288917888849974,0.0664830682426691));
#721=CARTESIAN_POINT('',(-0.00911680422723292,0.0288917888849974,0.0664830682426691));
#722=CARTESIAN_POINT('',(-0.00911680422723293,0.0298917888849974,0.0664830682426691));
#723=CARTESIAN_POINT('',(0.000883195772767071,0.0298917888849974,0.0664830682426691));
#724=CARTESIAN_POINT('',(0.000883195772767071,0.0163917888849974,0.0664830682426691));
#725=CARTESIAN_POINT('',(0.000883195772767071,0.0028917888849974,0.0664830682426691));
#726=CARTESIAN_POINT('',(-0.00911680422723293,0.0028917888849974,0.0664830682426691));
#727=CARTESIAN_POINT('',(0.,0.,0.));
#728=CARTESIAN_POINT('',(-0.00939247710630296,0.104820583947003,0.0891629795730114));
#729=CARTESIAN_POINT('',(-0.00939247710630298,0.175820583947003,0.0891629795730114));
#730=CARTESIAN_POINT('',(-0.013392477106303,0.175820583947003,0.0891629795730114));
#731=CARTESIAN_POINT('',(-0.00539247710630298,0.175820583947003,0.0891629795730114));
#732=CARTESIAN_POINT('',(-0.013392477106303,0.177320583947003,0.0891629795730114));
#733=CARTESIAN_POINT('',(-0.013392477106303,0.178820583947003,0.0891629795730114));
#734=CARTESIAN_POINT('',(-0.00939247710630298,0.178820583947003,0.0891629795730114));
#735=CARTESIAN_POINT('',(-0.00539247710630298,0.178820583947003,0.0891629795730114));
#736=CARTESIAN_POINT('',(-0.00539247710630298,0.177320583947003,0.0891629795730114));
#737=CARTESIAN_POINT('',(-0.00939247710630296,0.104820583947003,-0.0308370204269886));
#738=CARTESIAN_POINT('',(-0.00439247710630296,0.104820583947003,-0.0308370204269886));
#739=CARTESIAN_POINT('',(-0.00439247710630298,0.179820583947003,-0.0308370204269886));
#740=CARTESIAN_POINT('',(-0.00439247710630297,0.174820583947003,-0.0308370204269886));
#741=CARTESIAN_POINT('',(-0.00939247710630298,0.174820583947003,-0.0308370204269886));
#742=CARTESIAN_POINT('',(-0.014392477106303,0.174820583947003,-0.0308370204269886));
#743=CARTESIAN_POINT('',(-0.014392477106303,0.104820583947003,-0.0308370204269886));
#744=CARTESIAN_POINT('',(-0.014392477106303,0.179820583947003,-0.0308370204269886));
#745=CARTESIAN_POINT('',(-0.00939247710630298,0.179820583947003,-0.0308370204269886));
#746=CARTESIAN_POINT('',(-0.013392477106303,0.177320583947003,-0.0308370204269886));
#747=CARTESIAN_POINT('',(-0.013392477106303,0.175820583947003,-0.0308370204269886));
#748=CARTESIAN_POINT('',(-0.013392477106303,0.178820583947003,-0.0308370204269886));
#749=CARTESIAN_POINT('',(-0.00939247710630298,0.175820583947003,-0.0308370204269886));
#750=CARTESIAN_POINT('',(-0.00539247710630298,0.175820583947003,-0.0308370204269886));
#751=CARTESIAN_POINT('',(-0.00539247710630298,0.177320583947003,-0.0308370204269886));
#752=CARTESIAN_POINT('',(-0.00539247710630298,0.178820583947003,-0.0308370204269886));
#753=CARTESIAN_POINT('',(-0.00939247710630298,0.178820583947003,-0.0308370204269886));
#754=CARTESIAN_POINT('',(-0.00939247710630298,0.178820583947003,-0.0308370204269886));
#755=CARTESIAN_POINT('',(-0.013392477106303,0.178820583947003,-0.0308370204269886));
#756=CARTESIAN_POINT('',(-0.00539247710630298,0.178820583947003,-0.0308370204269886));
#757=CARTESIAN_POINT('',(-0.00539247710630298,0.177320583947003,-0.0308370204269886));
#758=CARTESIAN_POINT('',(-0.00539247710630298,0.175820583947003,-0.0308370204269886));
#759=CARTESIAN_POINT('',(-0.00939247710630298,0.175820583947003,-0.0308370204269886));
#760=CARTESIAN_POINT('',(-0.013392477106303,0.175820583947003,-0.0308370204269886));
#761=CARTESIAN_POINT('',(-0.013392477106303,0.177320583947003,-0.0308370204269886));
#762=CARTESIAN_POINT('',(-0.00939247710630298,0.174820583947003,-0.0308370204269886));
#763=CARTESIAN_POINT('',(-0.00939247710630298,0.174820583947003,0.0891629795730114));
#764=CARTESIAN_POINT('',(-0.00439247710630297,0.174820583947003,0.0891629795730114));
#765=CARTESIAN_POINT('',(-0.014392477106303,0.174820583947003,0.0891629795730114));
#766=CARTESIAN_POINT('',(-0.014392477106303,0.174820583947003,-0.0308370204269886));
#767=CARTESIAN_POINT('',(-0.00439247710630297,0.174820583947003,-0.0308370204269886));
#768=CARTESIAN_POINT('',(-0.00939247710630296,0.104820583947003,0.0991629795730114));
#769=CARTESIAN_POINT('',(-0.014392477106303,0.104820583947003,0.0991629795730114));
#770=CARTESIAN_POINT('',(-0.014392477106303,0.179820583947003,0.0991629795730114));
#771=CARTESIAN_POINT('',(-0.0143924771063029,0.029820583947003,0.0991629795730114));
#772=CARTESIAN_POINT('',(-0.00939247710630293,0.029820583947003,0.0991629795730114));
#773=CARTESIAN_POINT('',(-0.00439247710630294,0.029820583947003,0.0991629795730114));
#774=CARTESIAN_POINT('',(-0.00439247710630296,0.104820583947003,0.0991629795730114));
#775=CARTESIAN_POINT('',(-0.00439247710630298,0.179820583947003,0.0991629795730114));
#776=CARTESIAN_POINT('',(-0.00939247710630298,0.179820583947003,0.0991629795730114));
#777=CARTESIAN_POINT('',(-0.00939247710630296,0.104820583947003,0.0891629795730114));
#778=CARTESIAN_POINT('',(-0.00439247710630296,0.104820583947003,0.0891629795730114));
#779=CARTESIAN_POINT('',(-0.00439247710630294,0.029820583947003,0.0891629795730114));
#780=CARTESIAN_POINT('',(-0.00939247710630293,0.029820583947003,0.0891629795730114));
#781=CARTESIAN_POINT('',(-0.0143924771063029,0.029820583947003,0.0891629795730114));
#782=CARTESIAN_POINT('',(-0.014392477106303,0.104820583947003,0.0891629795730114));
#783=CARTESIAN_POINT('',(-0.00939247710630293,0.029820583947003,0.0891629795730114));
#784=CARTESIAN_POINT('',(-0.0143924771063029,0.029820583947003,0.0891629795730114));
#785=CARTESIAN_POINT('',(-0.00439247710630294,0.029820583947003,0.0891629795730114));
#786=CARTESIAN_POINT('',(-0.00439247710630296,0.104820583947003,0.0891629795730114));
#787=CARTESIAN_POINT('',(-0.00439247710630298,0.179820583947003,0.0891629795730114));
#788=CARTESIAN_POINT('',(-0.00939247710630298,0.179820583947003,0.0891629795730114));
#789=CARTESIAN_POINT('',(-0.014392477106303,0.179820583947003,0.0891629795730114));
#790=CARTESIAN_POINT('',(-0.014392477106303,0.104820583947003,0.0891629795730114));
#791=MECHANICAL_DESIGN_GEOMETRIC_PRESENTATION_REPRESENTATION('',(#484),
#793);
#792=MECHANICAL_DESIGN_GEOMETRIC_PRESENTATION_REPRESENTATION('',(#485),
#794);
#793=(
GEOMETRIC_REPRESENTATION_CONTEXT(3)
GLOBAL_UNCERTAINTY_ASSIGNED_CONTEXT((#795))
GLOBAL_UNIT_ASSIGNED_CONTEXT((#801,#799,#797))
REPRESENTATION_CONTEXT('Part 1','TOP_LEVEL_ASSEMBLY_PART')
);
#794=(
GEOMETRIC_REPRESENTATION_CONTEXT(3)
GLOBAL_UNCERTAINTY_ASSIGNED_CONTEXT((#796))
GLOBAL_UNIT_ASSIGNED_CONTEXT((#802,#800,#798))
REPRESENTATION_CONTEXT('Part 1','TOP_LEVEL_ASSEMBLY_PART')
);
#795=UNCERTAINTY_MEASURE_WITH_UNIT(LENGTH_MEASURE(1.E-8),#801,
'DISTANCE_ACCURACY_VALUE','Maximum Tolerance applied to model');
#796=UNCERTAINTY_MEASURE_WITH_UNIT(LENGTH_MEASURE(1.E-6),#802,
'DISTANCE_ACCURACY_VALUE','Maximum Tolerance applied to model');
#797=(
NAMED_UNIT(*)
SI_UNIT($,.STERADIAN.)
SOLID_ANGLE_UNIT()
);
#798=(
NAMED_UNIT(*)
SI_UNIT($,.STERADIAN.)
SOLID_ANGLE_UNIT()
);
#799=(
NAMED_UNIT(*)
PLANE_ANGLE_UNIT()
SI_UNIT($,.RADIAN.)
);
#800=(
NAMED_UNIT(*)
PLANE_ANGLE_UNIT()
SI_UNIT($,.RADIAN.)
);
#801=(
LENGTH_UNIT()
NAMED_UNIT(*)
SI_UNIT($,.METRE.)
);
#802=(
LENGTH_UNIT()
NAMED_UNIT(*)
SI_UNIT($,.METRE.)
);
#803=PRODUCT_DEFINITION_SHAPE('','',#805);
#804=PRODUCT_DEFINITION_SHAPE('','',#806);
#805=PRODUCT_DEFINITION('','',#809,#807);
#806=PRODUCT_DEFINITION('','',#810,#808);
#807=PRODUCT_DEFINITION_CONTEXT('',#821,'design');
#808=PRODUCT_DEFINITION_CONTEXT('',#822,'design');
#809=PRODUCT_DEFINITION_FORMATION_WITH_SPECIFIED_SOURCE('','',#813,
 .NOT_KNOWN.);
#810=PRODUCT_DEFINITION_FORMATION_WITH_SPECIFIED_SOURCE('','',#814,
 .NOT_KNOWN.);
#811=PRODUCT_RELATED_PRODUCT_CATEGORY('','',(#813));
#812=PRODUCT_RELATED_PRODUCT_CATEGORY('','',(#814));
#813=PRODUCT('Part 1','Part 1','Part 1',(#817));
#814=PRODUCT('Part 1','Part 1','Part 1',(#818));
#815=PRODUCT_CATEGORY('','');
#816=PRODUCT_CATEGORY('','');
#817=PRODUCT_CONTEXT('',#821,'mechanical');
#818=PRODUCT_CONTEXT('',#822,'mechanical');
#819=APPLICATION_PROTOCOL_DEFINITION('international standard',
'ap242_managed_model_based_3d_engineering',2020,#821);
#820=APPLICATION_PROTOCOL_DEFINITION('international standard',
'ap242_managed_model_based_3d_engineering',2020,#822);
#821=APPLICATION_CONTEXT('managed model based 3d engineering');
#822=APPLICATION_CONTEXT('managed model based 3d engineering');
ENDSEC;
END-ISO-10303-21;
